<?xml version="1.0" encoding="utf-8"?>
<!-- Generator: Adobe Illustrator 22.0.1, SVG Export Plug-In . SVG Version: 6.00 Build 0)  -->
<svg version="1.1" id="facebook" xmlns="http://www.w3.org/2000/svg" xmlns:xlink="http://www.w3.org/1999/xlink" x="0px" y="0px"
	 viewBox="0 0 256 256" style="enable-background:new 0 0 256 256;" xml:space="preserve">
<style type="text/css">
	.st0{opacity:0.9;fill:#475A94;enable-background:new    ;}
	.st1{fill:#FFFFFF;}
</style>
<title>facebook</title>
<path class="st0" d="M35.9,0h184.1C239.9,0,256,16.1,256,35.9v184.1c0,19.8-16.1,35.9-35.9,35.9H35.9C16.1,256,0,239.9,0,220.1V35.9
	C0,16.1,16.1,0,35.9,0z"/>
<path class="st1" d="M181.4,136.6l3.8-29.6h-29.4V88c0-8.6,2.4-14.4,14.7-14.4h15.7V47.1c-7.6-0.8-15.2-1.2-22.9-1.2
	c-22.6,0-38.1,13.8-38.1,39.2V107H99.6v29.6h25.6v76.1h30.6v-76.1H181.4z"/>
</svg>
