<?xml version="1.0" encoding="utf-8"?>
<svg version="1.1" id="OK_Logo" xmlns="http://www.w3.org/2000/svg" xmlns:xlink="http://www.w3.org/1999/xlink" x="0px" y="0px"
	 viewBox="0 0 256 256" style="enable-background:new 0 0 256 256;" xml:space="preserve">
<style type="text/css">
	.st0{fill:#E27E35;}
	.st1{fill:#FFFFFF;}
</style>
<g>
	<path class="st0" d="M256,128c0,128,0,128-128,128S0,256,0,128S0,0,128,0S256,0,256,128z"/>
	<path class="st1" d="M148.1,171.5c10.1-2.3,19.8-6.3,28.8-11.9c6.8-4.3,8.8-13.2,4.5-20c-4.3-6.8-13.2-8.8-20-4.6
		c-20.3,12.8-46.4,12.8-66.7,0c-6.8-4.3-15.8-2.2-20,4.6c-4.3,6.8-2.2,15.8,4.5,20c9,5.6,18.7,9.6,28.8,11.9l-27.7,27.7
		c-5.7,5.7-5.7,14.9,0,20.5c2.8,2.8,6.6,4.3,10.2,4.3c3.7,0,7.4-1.4,10.3-4.3l27.2-27.2l27.2,27.2c5.7,5.7,14.9,5.7,20.5,0
		c5.7-5.7,5.7-14.9,0-20.5L148.1,171.5 M128,61c11.3,0,20.5,9.2,20.5,20.5c0,11.3-9.2,20.5-20.5,20.5c-11.3,0-20.5-9.2-20.5-20.5
		C107.5,70.2,116.7,61,128,61L128,61z M128,131.1c27.3,0,49.5-22.2,49.5-49.5c0-27.3-22.2-49.6-49.5-49.6S78.5,54.2,78.5,81.6
		S100.7,131.1,128,131.1z"/>
</g>
</svg>
