<?xml version="1.0" encoding="utf-8"?>
<svg version="1.1" id="twitter" xmlns="http://www.w3.org/2000/svg" xmlns:xlink="http://www.w3.org/1999/xlink" x="0px" y="0px"
	 viewBox="0 0 256 256" style="enable-background:new 0 0 256 256;" xml:space="preserve">
<style type="text/css">
	.st0{opacity:0.7;fill:#87C8EC;enable-background:new    ;}
	.st1{fill:#FFFFFF;}
</style>
<title>twitter</title>
<path class="st0" d="M35.9,0h184.1C239.9,0,256,16.1,256,35.9v184.1c0,19.8-16.1,35.9-35.9,35.9H35.9C16.1,256,0,239.9,0,220.1V35.9
	C0,16.1,16.1,0,35.9,0z"/>
<path class="st1" d="M202.7,74.9c-5.7,2.5-11.6,4.1-17.8,4.9c6.5-3.9,11.3-10,13.6-17.1c-6.1,3.6-12.7,6.2-19.7,7.6
	c-11.7-12.5-31.3-13.1-43.8-1.4c-6.2,5.9-9.8,14-9.8,22.6c0,2.4,0.3,4.7,0.8,7.1c-24.9-1.3-48.1-13-63.9-32.4
	c-8.2,14.2-4,32.3,9.6,41.4c-4.9-0.2-9.7-1.5-14-3.9v0.4c0,14.7,10.4,27.4,24.8,30.4c-4.6,1.2-9.4,1.4-14,0.5
	c4,12.6,15.7,21.3,28.9,21.5c-11,8.6-24.5,13.3-38.5,13.3c-2.5,0-4.9-0.1-7.4-0.4c14.2,9.1,30.7,13.9,47.5,13.9
	c57,0,88.1-47.2,88.1-88.1c0-1.3,0-2.7-0.1-4C193.3,86.6,198.5,81.2,202.7,74.9z"/>
</svg>
