<?xml version="1.0" encoding="utf-8"?>
<!-- Generator: Adobe Illustrator 22.0.1, SVG Export Plug-In . SVG Version: 6.00 Build 0)  -->
<svg version="1.1" id="vk" xmlns="http://www.w3.org/2000/svg" xmlns:xlink="http://www.w3.org/1999/xlink" x="0px" y="0px"
	 viewBox="0 0 256 256" style="enable-background:new 0 0 256 256;" xml:space="preserve">
<style type="text/css">
	.st0{fill:#5181B8;}
	.st1{clip-path:url(#SVGID_2_);}
	.st2{fill:#FFFFFF;}
</style>
<title>vk</title>
<g id="Base">
	<path class="st0" d="M88.7,0h78.5C238.9,0,256,17.1,256,88.7v78.5c0,71.7-17.1,88.7-88.7,88.7H88.7C17.1,256,0,238.9,0,167.3V88.7
		C0,17.1,17.1,0,88.7,0z"/>
	<g>
		<defs>
			<path id="SVGID_1_" d="M88.7,0h78.5C238.9,0,256,17.1,256,88.7v78.5c0,71.7-17.1,88.7-88.7,88.7H88.7C17.1,256,0,238.9,0,167.3
				V88.7C0,17.1,17.1,0,88.7,0z"/>
		</defs>
		<clipPath id="SVGID_2_">
			<use xlink:href="#SVGID_1_"  style="overflow:visible;"/>
		</clipPath>
		<g class="st1">
			<rect x="-6.7" y="-6.7" class="st0" width="341.3" height="341.3"/>
		</g>
	</g>
</g>
<path id="Logo" class="st2" d="M209.4,87.2c1.2-4,0-6.9-5.7-6.9h-18.8c-3.6-0.3-7,1.9-8.2,5.4c0,0-9.6,23.3-23.1,38.4
	c-4.4,4.4-6.4,5.8-8.8,5.8c-1.2,0-2.9-1.3-2.9-5.4V87.2c0-4.8-1.3-6.9-5.4-6.9h-29.5c-2.5-0.1-4.6,1.8-4.8,4.3c0,0,0,0,0,0.1
	c0,4.5,6.7,5.6,7.5,18.3v27.7c0,6.1-1.1,7.2-3.5,7.2c-6.4,0-21.9-23.4-31-50.1c-1.8-5.2-3.6-7.3-8.4-7.3H48.1
	c-5.4,0-6.4,2.5-6.4,5.4c0,5,6.4,29.6,29.6,62.3c15.5,22.2,37.4,34.3,57.3,34.3c11.9,0,13.4-2.7,13.4-7.3v-16.8
	c0-5.4,1.1-6.4,4.9-6.4c2.8,0,7.6,1.3,18.7,12.1c12.7,12.7,14.8,18.4,22,18.4h18.8c5.4,0,8-2.7,6.5-8c-1.5-5.3-7.8-12.9-15.8-22
	c-4.4-5.2-10.9-10.7-12.9-13.5c-2.8-3.6-2-5.2,0-8.4C184.1,130.4,207,98.1,209.4,87.2z"/>
</svg>
